<svg width="41" height="12" viewBox="0 0 41 12" fill="none" xmlns="http://www.w3.org/2000/svg">
<path d="M1.48828 11V6.72754H5.85645V5.63379H1.48828V2.24316H6.24609V1.13574H0.257812V11H1.48828ZM11.1475 11.1299C13.2461 11.1299 14.5449 9.68066 14.5449 7.31543C14.5449 4.94336 13.2461 3.50098 11.1475 3.50098C9.04883 3.50098 7.75 4.94336 7.75 7.31543C7.75 9.68066 9.04883 11.1299 11.1475 11.1299ZM11.1475 10.0703C9.75293 10.0703 8.9668 9.05859 8.9668 7.31543C8.9668 5.56543 9.75293 4.56055 11.1475 4.56055C12.542 4.56055 13.3281 5.56543 13.3281 7.31543C13.3281 9.05859 12.542 10.0703 11.1475 10.0703ZM16.459 11H17.6348V0.705078H16.459V11ZM19.9863 11H21.1621V0.705078H19.9863V11ZM26.4736 11.1299C28.5723 11.1299 29.8711 9.68066 29.8711 7.31543C29.8711 4.94336 28.5723 3.50098 26.4736 3.50098C24.375 3.50098 23.0762 4.94336 23.0762 7.31543C23.0762 9.68066 24.375 11.1299 26.4736 11.1299ZM26.4736 10.0703C25.0791 10.0703 24.293 9.05859 24.293 7.31543C24.293 5.56543 25.0791 4.56055 26.4736 4.56055C27.8682 4.56055 28.6543 5.56543 28.6543 7.31543C28.6543 9.05859 27.8682 10.0703 26.4736 10.0703ZM40.7129 3.63086H39.5303L38.0811 9.52344H37.9717L36.3242 3.63086H35.1963L33.5488 9.52344H33.4395L31.9902 3.63086H30.8008L32.8652 11H34.0547L35.6953 5.29883H35.8047L37.4521 11H38.6484L40.7129 3.63086Z" fill="#0F1419"/>
</svg>
