<svg width="98" height="15" viewBox="0 0 98 15" fill="none" xmlns="http://www.w3.org/2000/svg">
<path d="M5.02783 12C7.28369 12 8.68262 10.8281 8.68262 8.9751C8.68262 7.61279 7.66455 6.55811 6.26562 6.45557V6.32373C7.34961 6.1626 8.17725 5.18848 8.17725 4.06787C8.17725 2.43457 6.9541 1.43115 4.90332 1.43115H0.281738V12H5.02783ZM2.49365 3.12305H4.33936C5.39404 3.12305 6.00195 3.62842 6.00195 4.4707C6.00195 5.32031 5.3501 5.81104 4.15625 5.81104H2.49365V3.12305ZM2.49365 10.3081V7.30518H4.4126C5.71631 7.30518 6.42676 7.81787 6.42676 8.78467C6.42676 9.77344 5.73828 10.3081 4.46387 10.3081H2.49365ZM10.4697 12H12.6011V7.5249C12.6011 6.38965 13.3994 5.70117 14.564 5.70117C14.9082 5.70117 15.4062 5.76709 15.5747 5.83301V3.89209C15.3916 3.82617 15.0327 3.78955 14.7397 3.78955C13.7144 3.78955 12.8794 4.40479 12.667 5.21045H12.5352V3.92139H10.4697V12ZM19.7715 10.5205C19.0317 10.5205 18.5117 10.1543 18.5117 9.55371C18.5117 8.9751 18.9585 8.64551 19.874 8.57959L21.5073 8.47705V9.07031C21.5073 9.89062 20.7603 10.5205 19.7715 10.5205ZM19.0684 12.1245C20.1157 12.1245 20.9946 11.6851 21.4121 10.9453H21.5439V12H23.6094V6.48486C23.6094 4.75635 22.4009 3.74561 20.2622 3.74561C18.2334 3.74561 16.8638 4.68311 16.7246 6.17725H18.6875C18.8633 5.69385 19.376 5.43018 20.145 5.43018C21.0239 5.43018 21.5073 5.81104 21.5073 6.48486V7.14404L19.5518 7.26123C17.5449 7.37842 16.4243 8.22803 16.4243 9.69287C16.4243 11.1724 17.5156 12.1245 19.0684 12.1245ZM28.5972 12.1245C29.7178 12.1245 30.6333 11.6045 31.0654 10.7329H31.1973V12H33.2627V0.837891H31.1313V5.21045H31.0068C30.5894 4.31689 29.6885 3.78955 28.5972 3.78955C26.5684 3.78955 25.3086 5.37891 25.3086 7.94971C25.3086 10.5278 26.561 12.1245 28.5972 12.1245ZM29.3223 5.57666C30.4575 5.57666 31.1533 6.49219 31.1533 7.96436C31.1533 9.44385 30.4648 10.3447 29.3223 10.3447C28.1797 10.3447 27.4985 9.45117 27.4985 7.95703C27.4985 6.47754 28.187 5.57666 29.3223 5.57666ZM35.5479 12H37.6792V0.837891H35.5479V12ZM43.3921 5.37891C44.3882 5.37891 45.0327 6.04541 45.0767 7.11475H41.6343C41.7075 6.06738 42.4033 5.37891 43.3921 5.37891ZM45.1206 9.7002C44.8936 10.2349 44.3149 10.5352 43.4727 10.5352C42.3594 10.5352 41.6562 9.78809 41.627 8.58691V8.47705H47.1714V7.8252C47.1714 5.26172 45.7651 3.74561 43.3848 3.74561C40.9824 3.74561 39.5029 5.37158 39.5029 8.00098C39.5029 10.623 40.9531 12.1758 43.4141 12.1758C45.3916 12.1758 46.7832 11.2236 47.1055 9.7002H45.1206ZM49.7056 14.937C51.7197 14.937 52.7085 14.2046 53.397 12.1245L56.1802 3.92139H53.9243L52.2251 10.0444H52.0933L50.394 3.92139H48.043L50.8774 12.0513L50.8042 12.3442C50.6284 12.9595 50.1743 13.2158 49.376 13.2158C49.2881 13.2158 48.9658 13.2158 48.8926 13.2012V14.915C48.9805 14.9297 49.625 14.937 49.7056 14.937ZM66.3682 1.16016C63.2627 1.16016 61.2778 3.28418 61.2778 6.71191C61.2778 10.1396 63.2334 12.271 66.3682 12.271C69.4956 12.271 71.4438 10.1396 71.4438 6.71191C71.4438 3.2915 69.4883 1.16016 66.3682 1.16016ZM66.3682 3.10107C68.0894 3.10107 69.188 4.5 69.188 6.71191C69.188 8.9165 68.0894 10.3301 66.3682 10.3301C64.6323 10.3301 63.541 8.9165 63.541 6.71191C63.541 4.5 64.6543 3.10107 66.3682 3.10107ZM73.3262 12H75.4575V7.5249C75.4575 6.38965 76.2559 5.70117 77.4204 5.70117C77.7646 5.70117 78.2627 5.76709 78.4312 5.83301V3.89209C78.248 3.82617 77.8892 3.78955 77.5962 3.78955C76.5708 3.78955 75.7358 4.40479 75.5234 5.21045H75.3916V3.92139H73.3262V12ZM80.8042 2.00244V4.00195H79.5444V5.6792H80.8042V9.81738C80.8042 11.3921 81.5806 12.0293 83.5435 12.0293C83.9536 12.0293 84.3491 11.9854 84.6128 11.9341V10.3081C84.4077 10.3301 84.2612 10.3374 83.9829 10.3374C83.2578 10.3374 82.9355 10.0151 82.9355 9.31201V5.6792H84.6128V4.00195H82.9355V2.00244H80.8042ZM86.4072 12H88.5386V3.92139H86.4072V12ZM87.4766 2.79346C88.2383 2.79346 88.7363 2.34668 88.7363 1.7168C88.7363 1.07959 88.2383 0.640137 87.4766 0.640137C86.7075 0.640137 86.2168 1.07959 86.2168 1.7168C86.2168 2.34668 86.7075 2.79346 87.4766 2.79346ZM90.5161 12H97.2471V10.3008H93.2993V10.1689L97.1519 5.32764V3.92139H90.5747V5.62061H94.603V5.75244L90.5161 10.7402V12Z" fill="#D9D9D9"/>
</svg>
